<svg width="23" height="23" viewBox="0 0 23 23" fill="none" xmlns="http://www.w3.org/2000/svg">
<path fill-rule="evenodd" clip-rule="evenodd" d="M20.0015 8.54427H21.2214C21.4443 8.52836 21.6681 8.5577 21.8794 8.63055C22.0906 8.70339 22.2849 8.81823 22.4506 8.96815C22.6163 9.11806 22.7499 9.29995 22.8435 9.50287C22.9371 9.70579 22.9886 9.92554 22.995 10.1489V12.8467C22.995 13.2723 22.8259 13.6805 22.525 13.9814C22.2241 14.2823 21.8159 14.4514 21.3903 14.4514H19.7106C19.6277 14.4517 19.5465 14.4758 19.4767 14.5207C19.4069 14.5655 19.3513 14.6294 19.3165 14.7047C19.2778 14.7894 19.2651 14.8837 19.2802 14.9756C19.2952 15.0676 19.3373 15.1529 19.401 15.2208L20.5833 16.4032C20.8833 16.704 21.0518 17.1115 21.0518 17.5363C21.0518 17.9611 20.8833 18.3686 20.5833 18.6694L18.6737 20.579C18.3683 20.8701 17.9626 21.0325 17.5406 21.0325C17.1187 21.0325 16.713 20.8701 16.4076 20.579L15.0516 19.223C15.0051 19.1754 14.9454 19.1427 14.8801 19.1294C14.8149 19.116 14.7471 19.1225 14.6856 19.148C14.6179 19.1712 14.5591 19.2147 14.5171 19.2727C14.4751 19.3306 14.452 19.4001 14.451 19.4717V21.3954C14.451 21.8209 14.282 22.2291 13.9811 22.53C13.6801 22.8309 13.272 23 12.8464 23H10.1486C9.72299 23 9.31485 22.8309 9.01392 22.53C8.713 22.2291 8.54394 21.8209 8.54394 21.3954V19.4764C8.54418 19.4089 8.52419 19.3429 8.48656 19.2868C8.44893 19.2308 8.39537 19.1873 8.3328 19.162C8.26891 19.1321 8.19741 19.1224 8.12784 19.1341C8.05827 19.1458 7.99393 19.1785 7.94338 19.2277L6.58742 20.5837C6.28202 20.8748 5.87627 21.0372 5.45433 21.0372C5.03239 21.0372 4.62664 20.8748 4.32123 20.5837L2.41163 18.6741C2.11166 18.3733 1.9432 17.9658 1.9432 17.541C1.9432 17.1162 2.11166 16.7087 2.41163 16.4079L3.59399 15.2255C3.65645 15.1599 3.69855 15.0775 3.7152 14.9884C3.73186 14.8993 3.72235 14.8073 3.68783 14.7235C3.65469 14.6436 3.59876 14.5751 3.52701 14.5267C3.45526 14.4783 3.37086 14.4521 3.28433 14.4514H1.60463C1.17905 14.4514 0.770911 14.2823 0.469985 13.9814C0.169058 13.6805 0 13.2723 0 12.8467V10.1489C0.00674475 9.92294 0.059674 9.70076 0.155528 9.49603C0.251383 9.2913 0.388132 9.10836 0.557357 8.95848C0.726581 8.80859 0.924697 8.69494 1.1395 8.62451C1.35431 8.55408 1.58126 8.52837 1.80638 8.54897H3.02627C3.13173 8.54288 3.2329 8.50515 3.3166 8.44071C3.4003 8.37626 3.46263 8.28809 3.49546 8.18769V8.13608C3.53512 8.04241 3.54648 7.93917 3.52814 7.83911C3.50979 7.73906 3.46255 7.64656 3.39224 7.57305L2.41163 6.59245C2.11166 6.29165 1.9432 5.88417 1.9432 5.45935C1.9432 5.03454 2.11166 4.62706 2.41163 4.32626L4.32123 2.41666C4.62664 2.12552 5.03239 1.96311 5.45433 1.96311C5.87627 1.96311 6.28202 2.12552 6.58742 2.41666L7.38973 3.21897C7.47583 3.30516 7.58593 3.36336 7.70564 3.38596C7.82534 3.40856 7.94908 3.39451 8.06067 3.34566L8.17797 3.29405C8.287 3.24712 8.37982 3.16917 8.44489 3.0699C8.50996 2.97062 8.54441 2.85441 8.54394 2.73571V1.60496C8.54394 1.17939 8.713 0.771247 9.01392 0.470321C9.31485 0.169395 9.72299 0.000336174 10.1486 0.000336174H12.8464C13.0599 -0.00403402 13.2721 0.0342429 13.4706 0.112924C13.6691 0.191605 13.8498 0.309108 14.0023 0.458549C14.1548 0.60799 14.276 0.786363 14.3587 0.983217C14.4414 1.18007 14.4839 1.39145 14.4839 1.60496V2.73571C14.484 2.85427 14.5187 2.97023 14.5837 3.06939C14.6487 3.16855 14.7412 3.24662 14.8498 3.29405L14.9625 3.34096C15.0746 3.39087 15.1993 3.40547 15.32 3.38285C15.4407 3.36022 15.5516 3.30143 15.6381 3.21428L16.4404 2.41197C16.7458 2.12083 17.1516 1.95842 17.5735 1.95842C17.9954 1.95842 18.4012 2.12083 18.7066 2.41197L20.6162 4.32157C20.9162 4.62237 21.0846 5.02985 21.0846 5.45466C21.0846 5.87948 20.9162 6.28695 20.6162 6.58775L19.6356 7.56836C19.5662 7.64146 19.5195 7.73312 19.5012 7.83222C19.4829 7.93133 19.4937 8.03362 19.5324 8.1267V8.18769C19.566 8.28721 19.6286 8.37438 19.7123 8.43794C19.7959 8.5015 19.8967 8.53854 20.0015 8.54427ZM21.525 12.9861C21.562 12.9491 21.5827 12.899 21.5827 12.8467L21.5499 10.1583C21.5499 9.96123 21.2496 9.96123 21.1886 9.96123H19.9687C19.5737 9.95922 19.1889 9.83566 18.8665 9.60734C18.5442 9.37902 18.3 9.057 18.167 8.68503V8.63342C18.0327 8.28614 18.0015 7.90746 18.0773 7.5429C18.153 7.17834 18.3324 6.84341 18.594 6.57837L19.5746 5.59776C19.611 5.56089 19.6314 5.51116 19.6314 5.45935C19.6314 5.40754 19.611 5.35782 19.5746 5.32094L17.665 3.41134C17.6494 3.38908 17.6287 3.3709 17.6046 3.35835C17.5805 3.3458 17.5537 3.33925 17.5266 3.33925C17.4994 3.33925 17.4726 3.3458 17.4485 3.35835C17.4244 3.3709 17.4037 3.38908 17.3882 3.41134L16.5858 4.20896C16.3007 4.49655 15.9353 4.69121 15.5376 4.76741C15.1399 4.84361 14.7284 4.79777 14.3572 4.63593L14.2446 4.58901C13.8829 4.4329 13.575 4.1741 13.359 3.84466C13.143 3.51523 13.0284 3.12965 13.0294 2.73571V1.60496C13.0294 1.5527 13.0086 1.50258 12.9717 1.46562C12.9347 1.42867 12.8846 1.4079 12.8323 1.4079H10.1345C10.0822 1.4079 10.0321 1.42867 9.99515 1.46562C9.95819 1.50258 9.93743 1.5527 9.93743 1.60496V2.7404C9.93754 3.13354 9.82252 3.5181 9.60657 3.84662C9.39062 4.17514 9.08319 4.43322 8.72223 4.58901L8.60493 4.64062C8.23431 4.80142 7.82379 4.8467 7.42703 4.77053C7.03027 4.69436 6.6657 4.50028 6.38098 4.21366L5.57866 3.41134C5.56309 3.38908 5.54238 3.3709 5.51828 3.35835C5.49419 3.3458 5.46742 3.33925 5.44025 3.33925C5.41308 3.33925 5.38632 3.3458 5.36222 3.35835C5.33813 3.3709 5.31741 3.38908 5.30184 3.41134L3.39224 5.32094C3.35585 5.35782 3.33545 5.40754 3.33545 5.45935C3.33545 5.51116 3.35585 5.56089 3.39224 5.59776L4.37285 6.57837C4.63449 6.84433 4.81359 7.18032 4.88851 7.54581C4.96344 7.91129 4.93101 8.29065 4.79512 8.63811V8.68034C4.66112 9.05218 4.41583 9.37372 4.09263 9.60122C3.76942 9.82872 3.38398 9.95115 2.98874 9.95184H1.76884C1.70785 9.95184 1.40757 9.96123 1.40757 10.1489V12.842C1.40757 12.8943 1.42833 12.9444 1.46529 12.9814C1.50224 13.0183 1.55236 13.0391 1.60463 13.0391H3.27963C3.63418 13.0392 3.98119 13.1414 4.2791 13.3337C4.57701 13.5259 4.81318 13.7999 4.95933 14.1229C5.1163 14.4683 5.1649 14.8532 5.09873 15.2267C5.03256 15.6003 4.85472 15.9451 4.58867 16.2155L3.40632 17.3979C3.36993 17.4348 3.34952 17.4845 3.34952 17.5363C3.34952 17.5881 3.36993 17.6378 3.40632 17.6747L5.31592 19.5843C5.33149 19.6066 5.3522 19.6247 5.3763 19.6373C5.40039 19.6498 5.42716 19.6564 5.45433 19.6564C5.4815 19.6564 5.50826 19.6498 5.53236 19.6373C5.55645 19.6247 5.57717 19.6066 5.59274 19.5843L6.9487 18.2283C7.19475 17.9826 7.50812 17.8153 7.84922 17.7475C8.19032 17.6797 8.54385 17.7146 8.86516 17.8476C9.18646 17.9807 9.46114 18.2059 9.65449 18.495C9.84785 18.7841 9.9512 19.1239 9.95151 19.4717V21.3907C9.95151 21.4429 9.97227 21.4931 10.0092 21.53C10.0462 21.567 10.0963 21.5877 10.1486 21.5877H12.8417C12.894 21.5877 12.9441 21.567 12.9811 21.53C13.018 21.4931 13.0388 21.4429 13.0388 21.3907V19.4717C13.0422 19.1253 13.1475 18.7876 13.3416 18.5007C13.5357 18.2138 13.8099 17.9904 14.1301 17.8583C14.4503 17.7262 14.8023 17.6913 15.1423 17.7579C15.4822 17.8246 15.795 17.9898 16.0416 18.233L17.3975 19.589C17.4131 19.6113 17.4338 19.6294 17.4579 19.642C17.482 19.6545 17.5088 19.6611 17.536 19.6611C17.5631 19.6611 17.5899 19.6545 17.614 19.642C17.6381 19.6294 17.6588 19.6113 17.6744 19.589L19.584 17.6794C19.6204 17.6425 19.6408 17.5928 19.6408 17.541C19.6408 17.4892 19.6204 17.4394 19.584 17.4026L18.4016 16.2202C18.1495 15.9579 17.9792 15.6279 17.9112 15.2705C17.8432 14.913 17.8806 14.5436 18.0188 14.207C18.157 13.8705 18.3901 13.5813 18.6896 13.3748C18.9892 13.1683 19.3423 13.0533 19.706 13.0438H21.3857C21.4379 13.0438 21.488 13.023 21.525 12.9861ZM9.54013 8.56961C10.1188 8.18295 10.7992 7.97657 11.4951 7.97657C12.428 7.97781 13.3224 8.34895 13.982 9.00861C14.6417 9.66826 15.0128 10.5626 15.0141 11.4955C15.0141 12.1915 14.8077 12.8718 14.421 13.4505C14.0344 14.0292 13.4848 14.4802 12.8418 14.7465C12.1988 15.0129 11.4912 15.0826 10.8086 14.9468C10.126 14.811 9.49902 14.4759 9.00689 13.9837C8.51476 13.4916 8.17961 12.8646 8.04383 12.182C7.90805 11.4994 7.97774 10.7919 8.24408 10.1489C8.51042 9.50586 8.96145 8.95627 9.54013 8.56961ZM10.3221 13.251C10.6693 13.483 11.0776 13.6068 11.4951 13.6068C12.0551 13.6068 12.5921 13.3844 12.9881 12.9884C13.384 12.5925 13.6065 12.0555 13.6065 11.4955C13.6065 11.0779 13.4827 10.6697 13.2507 10.3225C13.0187 9.97527 12.6889 9.70466 12.3031 9.54485C11.9173 9.38505 11.4928 9.34324 11.0832 9.4247C10.6737 9.50617 10.2975 9.70726 10.0022 10.0025C9.70691 10.2978 9.50582 10.674 9.42436 11.0836C9.34289 11.4931 9.3847 11.9177 9.54451 12.3035C9.70431 12.6893 9.97493 13.019 10.3221 13.251Z" fill="#0480C9"/>
</svg>
