<svg width="325" height="258" viewBox="0 0 325 258" fill="none" xmlns="http://www.w3.org/2000/svg">
<path d="M221.666 231.083V177.996L258.92 163.467L289.468 180.418L324.301 161.418V215.064H270.469L269.538 231.083H221.666Z" fill="#010304"/>
<path opacity="0.9" d="M1.00042 90.624V52.9782C1.00042 51.8731 1.89623 50.9773 3.00127 50.9773H65.1727C66.2778 50.9773 67.1736 51.8731 67.1736 52.9782V119.724C67.1736 121.507 69.3288 122.399 70.5892 121.139L91.0601 100.668C92.3206 99.4076 91.4279 97.2524 89.6453 97.2524H82.5942C81.4891 97.2524 80.5933 96.3566 80.5933 95.2515V82.5942C80.5933 81.4892 81.4891 80.5934 82.5942 80.5934H115.762H223.896C225.001 80.5934 225.897 79.6976 225.897 78.5926V3.00127C225.897 1.89623 226.792 1.00042 227.898 1.00042H296.085C297.19 1.00042 298.086 1.89623 298.086 3.00126V59.157C298.086 60.262 298.981 61.1579 300.086 61.1579H321.999C323.104 61.1579 324 62.0537 324 63.1587V136.899C324 138.004 323.104 138.9 321.999 138.9H287.129C286.024 138.9 285.129 139.796 285.129 140.901V158.185C285.129 159.29 286.024 160.186 287.129 160.186H321.999C323.104 160.186 324 161.082 324 162.187V212.79C324 213.895 323.104 214.791 321.999 214.791H272.321C271.216 214.791 270.321 215.687 270.321 216.792V229.449C270.321 230.554 269.425 231.45 268.32 231.45H223.27C222.165 231.45 221.269 230.554 221.269 229.449V180.697C221.269 179.592 220.373 178.696 219.268 178.696H217.717C216.612 178.696 215.716 179.592 215.716 180.697V254.437C215.716 255.542 214.82 256.438 213.715 256.438H180.547H145.528C144.423 256.438 143.527 255.542 143.527 254.437V202.909C143.527 201.804 142.631 200.908 141.526 200.908H134.422C133.317 200.908 132.421 201.804 132.421 202.909V246.108C132.421 247.213 131.525 248.109 130.42 248.109H55.5081C54.9775 248.109 54.4686 247.898 54.0933 247.523L48.7869 242.216C48.4117 241.841 48.2009 241.332 48.2009 240.801V202.909C48.2009 201.804 49.0967 200.908 50.2017 200.908H106.357C107.462 200.908 108.358 200.012 108.358 198.907V196.431C108.358 195.326 107.462 194.43 106.357 194.43H31.6917C30.5867 194.43 29.6909 193.534 29.6909 192.429V94.6257C29.6909 93.5207 28.7951 92.6249 27.69 92.6249H3.00127C1.89623 92.6249 1.00042 91.7291 1.00042 90.624Z" fill="#2B6992" fill-opacity="0.94" stroke="#3D82AF" stroke-width="2"/>
<circle cx="254.798" cy="163.636" r="10.7257" fill="#4181AA" stroke="#70ACD3" stroke-width="2"/>
<circle cx="254.798" cy="167.479" r="1.82844" fill="#70ACD3"/>
</svg>
